<svg width="1374" height="116" viewBox="0 0 1374 116" fill="none" xmlns="http://www.w3.org/2000/svg">
<path fill-rule="evenodd" clip-rule="evenodd" d="M1374 33.645L1297.29 33.645C1221.72 33.645 1068.29 33.645 916 47.3708C763.715 61.0966 610.285 88.5483 458 102.274C305.715 116 152.285 116 76.7151 116L4.673e-05 116L5.68711e-05 -0.000115708L76.7151 -0.000109002C152.285 -0.000102395 305.715 -8.89817e-05 458 -7.56685e-05C610.285 -6.23553e-05 763.715 -4.89421e-05 916 -3.56289e-05C1068.29 -2.23157e-05 1221.72 -8.90243e-06 1297.29 -2.29589e-06L1374 4.41074e-06L1374 33.645Z" fill="#2764A3"/>
</svg>
